# xmcd CD database file
#
# Track frame offsets:
#	150
#	7871
#	21305
#	31097
#	42738
#	55276
#	66861
#	81462
#	99955
#	111114
#	128642
#	141166
#	149729
#	158026
#	169171
#	181551
#	193065
#	211374
#	220690
#	231586
#
# Disc length: 3215 seconds
#
# Revision: 4
# Processed by: cddbd v1.5.2PL0 Copyright (c) Steve Scherf et al.
# Submitted via: CDex 1.95
#
DISCID=1e0c8d14
DTITLE=Various Artist - Great Country Hits Vol6 CD2
DYEAR=1999
DGENRE=Country
TTITLE0=Ralph Stanley - Buckwheat
TTITLE1=Johnny Lee - Saturday's Hero
TTITLE2=Barbara Mandrell - Do Right Woman, Do Right Man
TTITLE3=Bob Wills - C Jam Blues
TTITLE4=Anne Murray - Just Fall In Love Again
TTITLE5=Conway Twitty - I'm Not Through Loving You
TTITLE6=Tammy Wynette - Till I Can Make It On My Own
TTITLE7=T G Sheppard - Last Cheaters Waltz
TTITLE8=Glen Yarborough - Dark As A Dungeon
TTITLE9=Atlanta - Pictures
TTITLE10=Tina Turner - If It's Alright With You
TTITLE11=Terri Gibbs - Someone
TTITLE12=Willie Nelson - Slow Down Old World
TTITLE13=Tanya Tucker - Pecos Promenade
TTITLE14=Porter Wagoner - If You Go, I'll Follow You
TTITLE15=Mel Tillis - I Believe In You
TTITLE16=Nitty Gritty Dirt Band - Long Hard Road
TTITLE17=George Jones - Old Brush Arbor
TTITLE18=Freddy Fender - The Rains Came
TTITLE19=Connie Smith - I'm Only In It For The Love
EXTD=YEAR: 1999
EXTT0=
EXTT1=
EXTT2=
EXTT3=
EXTT4=
EXTT5=
EXTT6=
EXTT7=
EXTT8=
EXTT9=
EXTT10=
EXTT11=
EXTT12=
EXTT13=
EXTT14=
EXTT15=
EXTT16=
EXTT17=
EXTT18=
EXTT19=
PLAYORDER=
